<svg width="103" height="27" viewBox="0 0 103 27" fill="none" xmlns="http://www.w3.org/2000/svg">
<path d="M73.786 21.6821L73.3492 21.9433L73.6181 22.3754L74.3513 23.5533C74.3734 23.5927 74.3783 23.6188 74.3783 23.6425C74.3783 23.6811 74.3619 23.7242 74.3341 23.7553C74.3213 23.7696 74.3098 23.7772 74.3025 23.7808C74.296 23.7839 74.2929 23.784 74.2915 23.784C74.2819 23.784 74.2774 23.7821 74.2729 23.7794C74.2671 23.7759 74.2522 23.765 74.2351 23.7369L74.2345 23.736L73.2003 22.0537L73.0539 21.8156H72.7743H72.2913H71.7913V22.3156V23.6519C71.7913 23.6945 71.7744 23.734 71.7505 23.7602C71.7277 23.7853 71.7105 23.7871 71.7046 23.7871C71.6997 23.7871 71.6849 23.7862 71.664 23.7628C71.6415 23.7378 71.6238 23.6978 71.6238 23.6519V19.4856C71.6238 19.4429 71.6408 19.4029 71.665 19.376C71.6883 19.3503 71.704 19.3505 71.7046 19.3505L71.7046 19.3505H73.2988C73.8574 19.3505 74.3842 19.8682 74.3842 20.5799C74.3842 21.0623 74.123 21.4805 73.786 21.6821ZM72.2913 19.6239H71.7913V20.1239V21.0515V21.5515H72.2913H73.3048C73.8644 21.5515 74.2196 21.0582 74.2196 20.583C74.2196 20.0939 73.8519 19.6239 73.3048 19.6239H72.2913Z" fill="#00524E" stroke="#00524E"/>
<path d="M77.8809 19.3444V19.3506H78.3798C78.3818 19.351 78.3972 19.3544 78.4189 19.3782C78.4458 19.4076 78.4618 19.4478 78.4618 19.4858C78.4618 19.5409 78.4417 19.5802 78.4206 19.603C78.3989 19.6266 78.3827 19.6273 78.3809 19.6273H76.7748H76.2748V20.1273V20.8285V21.3285H76.7748H77.9187C77.9297 21.3285 77.9437 21.3317 77.9604 21.3502C77.9782 21.3696 77.9995 21.4086 77.9995 21.4699C77.9995 21.5315 77.9789 21.5632 77.9668 21.5761C77.9555 21.5882 77.9415 21.5957 77.9187 21.5957H76.7748H76.2748V22.0957V23.0075V23.5075H76.7748H78.3809C78.3812 23.5075 78.384 23.5075 78.3901 23.5103C78.3967 23.5134 78.407 23.52 78.4184 23.5325C78.4412 23.5576 78.4618 23.5996 78.4618 23.6553C78.4618 23.6923 78.4467 23.7284 78.4224 23.7545C78.4107 23.7669 78.3997 23.7741 78.392 23.7777C78.3848 23.7811 78.3813 23.781 78.3809 23.781H76.1881H76.1881C76.1875 23.781 76.1847 23.781 76.1786 23.7781C76.1717 23.7748 76.1609 23.7678 76.1491 23.7548C76.124 23.7271 76.1073 23.687 76.1073 23.6458V19.4795C76.1073 19.4368 76.1243 19.3968 76.1486 19.3699C76.1718 19.3442 76.1875 19.3444 76.1881 19.3444L76.1881 19.3444H77.8809Z" fill="#00524E" stroke="#00524E"/>
<path d="M82.7805 19.9653L82.7869 19.9803C82.8112 20.0374 82.8151 20.0668 82.8151 20.0864C82.8151 20.0923 82.8136 20.1065 82.8057 20.1266C82.7977 20.1465 82.7858 20.166 82.7716 20.1821C82.7557 20.2002 82.7436 20.2076 82.7371 20.2105C82.7302 20.2072 82.7179 20.1999 82.6992 20.1848C82.6783 20.1679 82.6564 20.1467 82.6313 20.1201C82.6207 20.1088 82.6114 20.0986 82.6003 20.0864C82.5977 20.0836 82.5951 20.0807 82.5924 20.0777L82.5918 20.0771C82.5801 20.0642 82.5598 20.0421 82.5389 20.0216L82.539 20.0216L82.5353 20.0181C82.4211 19.9084 82.09 19.6147 81.4453 19.6147C81.2014 19.6147 80.9494 19.6598 80.7402 19.7865C80.5146 19.9232 80.3378 20.1621 80.3378 20.4763C80.3378 20.7531 80.4777 20.9601 80.6505 21.0912C80.8001 21.2048 80.9785 21.2666 81.1192 21.3066C81.2627 21.3474 81.4244 21.3803 81.5724 21.4104L81.5848 21.4129C81.7435 21.4452 81.8967 21.4766 82.0477 21.5166C82.3559 21.5982 82.5937 21.7015 82.7536 21.8514C82.8934 21.9825 83.0137 22.1862 83.0137 22.5736C83.0137 22.9719 82.8722 23.2572 82.6572 23.448C82.4357 23.6447 82.0934 23.7779 81.6379 23.7779C80.4706 23.7779 80.1368 23.0988 80.0964 23.0167C80.0928 23.0093 80.0915 23.0068 80.0922 23.0099L80.0899 23.0023C80.0877 22.995 80.0834 22.9769 80.0797 22.953C80.078 22.9419 80.0769 22.932 80.0762 22.9239C80.0755 22.9166 80.0754 22.913 80.0754 22.913C80.0754 22.913 80.0754 22.913 80.0754 22.9132C80.0754 22.8604 80.0948 22.8177 80.1148 22.7945C80.124 22.7839 80.1318 22.7789 80.1369 22.7765C80.1412 22.7744 80.1484 22.7717 80.1622 22.7717C80.1664 22.7717 80.1689 22.772 80.1701 22.7721L80.172 22.7725C80.1722 22.7726 80.1732 22.7728 80.1751 22.7736C80.1771 22.7745 80.1807 22.7762 80.186 22.7793C80.2096 22.7932 80.2606 22.8314 80.3444 22.9318L80.3455 22.9331C80.4519 23.0596 80.6011 23.214 80.8249 23.3308C81.0503 23.4486 81.3168 23.5107 81.6379 23.5107C81.9543 23.5107 82.2468 23.4584 82.4743 23.3075C82.7325 23.1363 82.8491 22.8765 82.8491 22.6176C82.8491 22.357 82.7383 22.1416 82.5644 21.9886C82.4119 21.8545 82.2272 21.7819 82.0785 21.736C81.9245 21.6884 81.7536 21.6536 81.5988 21.6232C81.5749 21.6185 81.5511 21.6139 81.5275 21.6093C81.3907 21.5825 81.2601 21.5571 81.1291 21.5253C80.8164 21.4494 80.5823 21.3548 80.4264 21.214C80.2934 21.094 80.1732 20.901 80.1732 20.5109C80.1732 20.1193 80.3057 19.8412 80.5012 19.6587C80.7005 19.4725 81.0102 19.3444 81.4334 19.3444C81.8068 19.3444 82.1313 19.455 82.3768 19.6011C82.6152 19.7429 82.7404 19.8936 82.7805 19.9653ZM82.7315 20.2123C82.7315 20.2123 82.7318 20.2123 82.7323 20.2122L82.7315 20.2123ZM82.7425 20.2129C82.7431 20.213 82.7434 20.2131 82.7434 20.2131L82.7425 20.2129Z" fill="#00524E" stroke="#00524E"/>
<path d="M88.6375 21.5674C88.6375 22.829 87.7079 23.7841 86.6543 23.7841C85.6006 23.7841 84.671 22.829 84.671 21.5674C84.671 20.3058 85.6006 19.3506 86.6543 19.3506C87.709 19.3506 88.6375 20.2975 88.6375 21.5674ZM86.6543 23.5075C87.6934 23.5075 88.4729 22.5942 88.4729 21.5674C88.4729 20.5413 87.6971 19.6272 86.6543 19.6272C85.6115 19.6272 84.8356 20.5413 84.8356 21.5674C84.8356 22.5934 85.6115 23.5075 86.6543 23.5075Z" fill="#00524E" stroke="#00524E"/>
<path d="M92.5556 21.6822L92.1188 21.9435L92.3878 22.3756L93.1209 23.5534C93.1431 23.5929 93.1479 23.619 93.1479 23.6427C93.1479 23.6812 93.1315 23.7244 93.1038 23.7555C93.091 23.7698 93.0794 23.7774 93.0722 23.7809C93.0657 23.784 93.0626 23.7841 93.0612 23.7841C93.0516 23.7841 93.0471 23.7823 93.0425 23.7796C93.0367 23.776 93.0219 23.7652 93.0047 23.7371L93.0041 23.7361L91.9699 22.0539L91.8235 21.8157H91.544H91.061H90.561V22.3157V23.6521C90.561 23.6947 90.5441 23.7341 90.5201 23.7604C90.4973 23.7854 90.4801 23.7873 90.4742 23.7873C90.4693 23.7873 90.4546 23.7863 90.4336 23.763C90.4111 23.7379 90.3934 23.6979 90.3934 23.6521V19.4858C90.3934 19.4431 90.4105 19.403 90.4347 19.3762C90.4579 19.3505 90.4736 19.3506 90.4742 19.3506L90.4742 19.3506H92.0685C92.627 19.3506 93.1539 19.8684 93.1539 20.58C93.1539 21.0625 92.8927 21.4807 92.5556 21.6822ZM91.061 19.6241H90.561V20.1241V21.0517V21.5517H91.061H92.0744C92.6341 21.5517 92.9893 21.0584 92.9893 20.5832C92.9893 20.0941 92.6216 19.6241 92.0744 19.6241H91.061Z" fill="#00524E" stroke="#00524E"/>
<path d="M96.5254 19.6272H96.0254V20.1272V23.6521C96.0254 23.6979 96.0077 23.7379 95.9852 23.763C95.9642 23.7863 95.9495 23.7873 95.9446 23.7873C95.9387 23.7873 95.9215 23.7854 95.8987 23.7604C95.8747 23.7341 95.8578 23.6947 95.8578 23.6521V20.1272V19.6272H95.3578H94.5785C94.5767 19.6272 94.5606 19.6265 94.5388 19.603C94.5177 19.5802 94.4977 19.5409 94.4977 19.4858C94.4977 19.4477 94.5136 19.4076 94.5405 19.3781C94.5622 19.3544 94.5776 19.351 94.5796 19.3506H97.3018H97.3047L97.3047 19.3506C97.3053 19.3506 97.3081 19.3506 97.3142 19.3535C97.3211 19.3568 97.3319 19.3638 97.3437 19.3768C97.3689 19.4045 97.3855 19.4447 97.3855 19.4858C97.3855 19.5455 97.3645 19.5846 97.346 19.6049C97.328 19.6246 97.3135 19.6272 97.3047 19.6272H96.5254Z" fill="#00524E" stroke="#00524E"/>
<path d="M48.1518 19.8654L48.1566 19.8705L48.17 19.8827C48.1859 19.8973 48.2093 19.9403 48.2093 19.9889C48.2093 20.0386 48.1904 20.0821 48.1684 20.1077C48.1583 20.1193 48.1499 20.1247 48.1451 20.127C48.1422 20.1284 48.139 20.1296 48.1342 20.1301C48.1263 20.1262 48.1084 20.1158 48.0777 20.091C47.7606 19.8156 47.3299 19.6273 46.8868 19.6273C45.8457 19.6273 45.0682 20.5428 45.0682 21.5768C45.0682 22.6264 45.872 23.5107 46.9076 23.5107C47.4351 23.5107 47.8916 23.3004 48.2409 22.8867L48.3588 22.747V22.5642V22.2623V21.7623H47.8588H46.7002H46.7001C46.6996 21.7623 46.6968 21.7623 46.6907 21.7594C46.6838 21.7561 46.673 21.7491 46.6611 21.7361C46.636 21.7084 46.6193 21.6683 46.6193 21.6271C46.6193 21.5679 46.6399 21.5317 46.6566 21.5137C46.6729 21.4961 46.6877 21.492 46.7002 21.492H48.41C48.4344 21.492 48.4492 21.4999 48.4615 21.5132C48.4751 21.5278 48.4967 21.5625 48.4967 21.6271V22.7969C48.4967 22.858 48.4778 22.8925 48.4692 22.9031L48.4644 22.909L48.4598 22.9151C48.0441 23.4605 47.4692 23.781 46.8839 23.781C45.8291 23.781 44.9006 22.8341 44.9006 21.5643C44.9006 20.2944 45.8291 19.3475 46.8839 19.3475C47.336 19.3475 47.792 19.5312 48.1518 19.8654Z" fill="#00524E" stroke="#00524E"/>
<path d="M54.1893 21.5674C54.1893 22.829 53.2597 23.7841 52.206 23.7841C51.1524 23.7841 50.2228 22.829 50.2228 21.5674C50.2228 20.3058 51.1524 19.3506 52.206 19.3506C53.2608 19.3506 54.1893 20.2975 54.1893 21.5674ZM52.206 23.5075C53.2452 23.5075 54.0247 22.5942 54.0247 21.5674C54.0247 20.5413 53.2488 19.6272 52.206 19.6272C51.1632 19.6272 50.3874 20.5413 50.3874 21.5674C50.3874 22.5934 51.1632 23.5075 52.206 23.5075Z" fill="#00524E" stroke="#00524E"/>
<path d="M56.0187 23.781C56.0118 23.7776 56.0012 23.7707 55.9897 23.7579C55.9645 23.7302 55.9479 23.6901 55.9479 23.649V19.4827C55.9479 19.44 55.9649 19.3999 55.9891 19.3731C56.0124 19.3474 56.0281 19.3475 56.0287 19.3475L56.0287 19.3475C56.03 19.3475 56.0482 19.348 56.0735 19.3757C56.0993 19.4037 56.1154 19.4432 56.1154 19.4827V23.0075V23.5075H56.6154H57.9667C57.9694 23.5075 57.9842 23.508 58.0051 23.5312C58.0263 23.5546 58.0475 23.5965 58.0475 23.6553C58.0475 23.697 58.0313 23.733 58.0097 23.7564C57.9887 23.7791 57.9725 23.781 57.9667 23.781H56.0287H56.0187Z" fill="#00524E" stroke="#00524E"/>
<path d="M61.9123 19.3538C61.9192 19.3571 61.9299 19.3641 61.9427 19.3781C61.9696 19.4076 61.9856 19.4477 61.9856 19.4858C61.9856 19.5409 61.9655 19.5802 61.9444 19.603C61.9227 19.6265 61.9066 19.6272 61.9048 19.6272H60.2986H59.7986V20.1272V20.9951V21.4951H60.2986H61.4425C61.4591 21.4951 61.4731 21.5004 61.4871 21.5156C61.5019 21.5316 61.5233 21.5671 61.5233 21.6303C61.5233 21.6761 61.5056 21.7161 61.4831 21.7412C61.4621 21.7645 61.4474 21.7654 61.4425 21.7654H60.2986H59.7986V22.2654V23.6552C59.7986 23.6978 59.7818 23.7373 59.7578 23.7635C59.735 23.7886 59.7178 23.7904 59.7119 23.7904C59.707 23.7904 59.6923 23.7895 59.6713 23.7661C59.6488 23.7411 59.6311 23.7011 59.6311 23.6552V19.4889C59.6311 19.4462 59.6481 19.4062 59.6724 19.3793C59.6956 19.3536 59.7113 19.3538 59.7119 19.3538L59.7119 19.3538H61.9048H61.9123Z" fill="#00524E" stroke="#00524E"/>
<mask id="path-11-inside-1_243_2294" fill="white">
<path d="M64.7409 22.6868C64.7409 22.5296 64.7646 22.3849 64.809 22.2528C64.8535 22.1208 64.9157 21.995 64.9928 21.8818C65.0698 21.7686 65.1587 21.6648 65.2595 21.5674C65.3602 21.473 65.4669 21.385 65.5795 21.3032C65.4936 21.1272 65.4284 20.9511 65.381 20.7781C65.3336 20.6052 65.3098 20.4291 65.3098 20.253C65.3098 20.0423 65.3454 19.8505 65.4195 19.6776C65.4936 19.5078 65.5943 19.36 65.7247 19.2405C65.8551 19.121 66.0062 19.0267 66.1811 18.9575C66.3529 18.8883 66.5396 18.8569 66.7411 18.8569C66.9426 18.8569 67.1352 18.8915 67.3012 18.9575C67.4642 19.0267 67.6034 19.1147 67.7131 19.2279C67.8257 19.3411 67.9087 19.4732 67.9679 19.6273C68.0272 19.7814 68.0568 19.9417 68.0568 20.1084C68.0568 20.275 68.0302 20.4197 67.9739 20.558C67.9205 20.6964 67.8464 20.8253 67.7546 20.9479C67.6627 21.0674 67.556 21.1806 67.4375 21.2844C67.319 21.3881 67.1945 21.4856 67.0671 21.5737C67.2152 21.7655 67.3753 21.951 67.5501 22.1334C67.6064 22.0422 67.6568 21.951 67.6983 21.8629C67.8346 21.5674 68.0242 21.4164 68.2613 21.4164C68.4332 21.4164 68.5695 21.4793 68.6732 21.602C68.7769 21.7246 68.8302 21.8661 68.8302 22.0202C68.8302 22.0799 68.8184 22.1491 68.7947 22.2245C68.7621 22.3094 68.7117 22.4195 68.6406 22.5516C68.5724 22.6836 68.4865 22.8283 68.3798 22.9792C68.4183 23.0201 68.4569 23.0578 68.4924 23.0955C68.531 23.1333 68.5665 23.171 68.5991 23.2056C68.6554 23.2716 68.6999 23.3439 68.7265 23.4288C68.7562 23.5106 68.768 23.5892 68.768 23.6584C68.768 23.7433 68.7532 23.825 68.7206 23.9005C68.691 23.976 68.6495 24.042 68.6021 24.1017C68.5547 24.1583 68.4984 24.2055 68.4361 24.2401C68.3709 24.2747 68.3087 24.2936 68.2465 24.2936C68.0628 24.2936 67.9087 24.2307 67.7901 24.1049C67.7101 24.0294 67.6301 23.9477 67.556 23.8565C67.3842 23.9885 67.2034 24.0923 67.0078 24.1741C66.8122 24.2558 66.6107 24.2936 66.3944 24.2936C66.1248 24.2936 65.8847 24.2527 65.6743 24.1741C65.4669 24.0923 65.2921 23.9823 65.1498 23.8376C65.0106 23.693 64.9039 23.5232 64.8328 23.3282C64.7616 23.1333 64.7261 22.9195 64.7261 22.6868H64.7409ZM66.3707 23.1018C66.4833 23.1018 66.6107 23.061 66.747 22.9823C66.6433 22.866 66.5396 22.7465 66.4389 22.6239C66.3381 22.5013 66.2374 22.3723 66.1425 22.2434C65.9766 22.3943 65.8936 22.5421 65.8936 22.6899C65.8936 22.822 65.9351 22.9226 66.021 22.9949C66.107 23.0672 66.2225 23.105 66.3707 23.105V23.1018ZM66.4626 20.2562C66.4626 20.4008 66.4922 20.5517 66.5485 20.7027C66.6581 20.6335 66.7441 20.5612 66.8093 20.4888C66.8745 20.4165 66.9041 20.3379 66.9041 20.2499C66.9041 20.1681 66.8863 20.1052 66.8508 20.0549C66.8152 20.0046 66.7648 19.9795 66.6967 19.9795C66.6167 19.9795 66.5574 20.0109 66.5189 20.0769C66.4803 20.143 66.4626 20.2027 66.4626 20.2593V20.2562Z"/>
</mask>
<path d="M64.7409 22.6868C64.7409 22.5296 64.7646 22.3849 64.809 22.2528C64.8535 22.1208 64.9157 21.995 64.9928 21.8818C65.0698 21.7686 65.1587 21.6648 65.2595 21.5674C65.3602 21.473 65.4669 21.385 65.5795 21.3032C65.4936 21.1272 65.4284 20.9511 65.381 20.7781C65.3336 20.6052 65.3098 20.4291 65.3098 20.253C65.3098 20.0423 65.3454 19.8505 65.4195 19.6776C65.4936 19.5078 65.5943 19.36 65.7247 19.2405C65.8551 19.121 66.0062 19.0267 66.1811 18.9575C66.3529 18.8883 66.5396 18.8569 66.7411 18.8569C66.9426 18.8569 67.1352 18.8915 67.3012 18.9575C67.4642 19.0267 67.6034 19.1147 67.7131 19.2279C67.8257 19.3411 67.9087 19.4732 67.9679 19.6273C68.0272 19.7814 68.0568 19.9417 68.0568 20.1084C68.0568 20.275 68.0302 20.4197 67.9739 20.558C67.9205 20.6964 67.8464 20.8253 67.7546 20.9479C67.6627 21.0674 67.556 21.1806 67.4375 21.2844C67.319 21.3881 67.1945 21.4856 67.0671 21.5737C67.2152 21.7655 67.3753 21.951 67.5501 22.1334C67.6064 22.0422 67.6568 21.951 67.6983 21.8629C67.8346 21.5674 68.0242 21.4164 68.2613 21.4164C68.4332 21.4164 68.5695 21.4793 68.6732 21.602C68.7769 21.7246 68.8302 21.8661 68.8302 22.0202C68.8302 22.0799 68.8184 22.1491 68.7947 22.2245C68.7621 22.3094 68.7117 22.4195 68.6406 22.5516C68.5724 22.6836 68.4865 22.8283 68.3798 22.9792C68.4183 23.0201 68.4569 23.0578 68.4924 23.0955C68.531 23.1333 68.5665 23.171 68.5991 23.2056C68.6554 23.2716 68.6999 23.3439 68.7265 23.4288C68.7562 23.5106 68.768 23.5892 68.768 23.6584C68.768 23.7433 68.7532 23.825 68.7206 23.9005C68.691 23.976 68.6495 24.042 68.6021 24.1017C68.5547 24.1583 68.4984 24.2055 68.4361 24.2401C68.3709 24.2747 68.3087 24.2936 68.2465 24.2936C68.0628 24.2936 67.9087 24.2307 67.7901 24.1049C67.7101 24.0294 67.6301 23.9477 67.556 23.8565C67.3842 23.9885 67.2034 24.0923 67.0078 24.1741C66.8122 24.2558 66.6107 24.2936 66.3944 24.2936C66.1248 24.2936 65.8847 24.2527 65.6743 24.1741C65.4669 24.0923 65.2921 23.9823 65.1498 23.8376C65.0106 23.693 64.9039 23.5232 64.8328 23.3282C64.7616 23.1333 64.7261 22.9195 64.7261 22.6868H64.7409ZM66.3707 23.1018C66.4833 23.1018 66.6107 23.061 66.747 22.9823C66.6433 22.866 66.5396 22.7465 66.4389 22.6239C66.3381 22.5013 66.2374 22.3723 66.1425 22.2434C65.9766 22.3943 65.8936 22.5421 65.8936 22.6899C65.8936 22.822 65.9351 22.9226 66.021 22.9949C66.107 23.0672 66.2225 23.105 66.3707 23.105V23.1018ZM66.4626 20.2562C66.4626 20.4008 66.4922 20.5517 66.5485 20.7027C66.6581 20.6335 66.7441 20.5612 66.8093 20.4888C66.8745 20.4165 66.9041 20.3379 66.9041 20.2499C66.9041 20.1681 66.8863 20.1052 66.8508 20.0549C66.8152 20.0046 66.7648 19.9795 66.6967 19.9795C66.6167 19.9795 66.5574 20.0109 66.5189 20.0769C66.4803 20.143 66.4626 20.2027 66.4626 20.2593V20.2562Z" fill="#00524E"/>
<path d="M64.7409 22.6868V23.6868H65.7409V22.6868H64.7409ZM65.2595 21.5674L64.576 20.8374L64.57 20.843L64.5641 20.8487L65.2595 21.5674ZM65.5795 21.3032L66.167 22.1125L66.8464 21.6192L66.4782 20.8647L65.5795 21.3032ZM65.4195 19.6776L64.5029 19.2777L64.5003 19.2838L65.4195 19.6776ZM66.1811 18.9575L66.549 19.8874L66.5544 19.8852L66.1811 18.9575ZM67.3012 18.9575L67.6919 18.037L67.6814 18.0326L67.6709 18.0284L67.3012 18.9575ZM67.7131 19.2279L66.9947 19.9237L67.0041 19.9332L67.7131 19.2279ZM67.9739 20.558L67.0476 20.1811L67.0441 20.1897L67.0408 20.1983L67.9739 20.558ZM67.7546 20.9479L68.5474 21.5575L68.5549 21.5475L67.7546 20.9479ZM67.0671 21.5737L66.4986 20.7509L65.631 21.3504L66.2757 22.185L67.0671 21.5737ZM67.5501 22.1334L66.8282 22.8254L67.7223 23.758L68.401 22.6587L67.5501 22.1334ZM67.6983 21.8629L68.6029 22.2892L68.6063 22.2817L67.6983 21.8629ZM68.7947 22.2245L69.7282 22.583L69.7394 22.5539L69.7487 22.5242L68.7947 22.2245ZM68.6406 22.5516L67.7601 22.0774L67.756 22.0852L67.752 22.093L68.6406 22.5516ZM68.3798 22.9792L67.5632 22.402L67.0912 23.0699L67.6521 23.665L68.3798 22.9792ZM68.4924 23.0955L67.7647 23.7814L67.7784 23.7959L67.7927 23.8099L68.4924 23.0955ZM68.5991 23.2056L69.3601 22.5568L69.3439 22.5379L69.3269 22.5198L68.5991 23.2056ZM68.7265 23.4288L67.7725 23.7285L67.779 23.7492L67.7864 23.7696L68.7265 23.4288ZM68.7206 23.9005L67.8026 23.504L67.7959 23.5194L67.7898 23.535L68.7206 23.9005ZM68.6021 24.1017L69.3686 24.7439L69.3771 24.7338L69.3854 24.7234L68.6021 24.1017ZM68.4361 24.2401L68.9048 25.1235L68.9134 25.1189L68.9219 25.1142L68.4361 24.2401ZM67.7901 24.1049L68.5179 23.4191L68.4977 23.3976L68.4763 23.3774L67.7901 24.1049ZM67.556 23.8565L68.3322 23.2259L67.7185 22.4705L66.9467 23.0635L67.556 23.8565ZM65.6743 24.1741L65.3077 25.1044L65.316 25.1077L65.3243 25.1108L65.6743 24.1741ZM65.1498 23.8376L64.4294 24.5313L64.4368 24.5388L65.1498 23.8376ZM64.7261 22.6868V21.6868H63.7261V22.6868H64.7261ZM66.3707 23.1018V22.1018H65.3707V23.1018H66.3707ZM66.747 22.9823L67.2466 23.8486L68.3115 23.2345L67.4935 22.3169L66.747 22.9823ZM66.1425 22.2434L66.9481 21.6509L66.2906 20.757L65.4697 21.5036L66.1425 22.2434ZM66.3707 23.105V24.105H67.3707V23.105H66.3707ZM66.5485 20.7027L65.6116 21.0522L66.0416 22.2049L67.0821 21.5484L66.5485 20.7027ZM65.7409 22.6868C65.7409 22.6313 65.749 22.595 65.7568 22.5718L63.8613 21.9339C63.7802 22.1749 63.7409 22.4278 63.7409 22.6868H65.7409ZM65.7568 22.5718C65.7728 22.5243 65.7948 22.4808 65.8195 22.4445L64.1661 21.3191C64.0367 21.5093 63.9342 21.7173 63.8613 21.9339L65.7568 22.5718ZM65.8195 22.4445C65.8545 22.3929 65.8982 22.3408 65.9548 22.2861L64.5641 20.8487C64.4192 20.9889 64.2851 21.1443 64.1661 21.3191L65.8195 22.4445ZM65.9429 22.2974C66.0131 22.2316 66.0877 22.17 66.167 22.1125L64.992 20.494C64.8461 20.6 64.7073 20.7144 64.576 20.8374L65.9429 22.2974ZM66.4782 20.8647C66.4202 20.7457 66.3767 20.6281 66.3454 20.5137L64.4166 21.0425C64.48 21.2741 64.567 21.5086 64.6808 21.7418L66.4782 20.8647ZM66.3454 20.5137C66.3214 20.4261 66.3098 20.3389 66.3098 20.253H64.3098C64.3098 20.5193 64.3457 20.7843 64.4166 21.0425L66.3454 20.5137ZM66.3098 20.253C66.3098 20.1561 66.3258 20.1014 66.3387 20.0713L64.5003 19.2838C64.365 19.5997 64.3098 19.9286 64.3098 20.253H66.3098ZM66.336 20.0775C66.3618 20.0184 66.386 19.9909 66.4003 19.9778L65.0491 18.5033C64.8027 18.7291 64.6253 18.9971 64.5029 19.2777L66.336 20.0775ZM66.4003 19.9778C66.4373 19.9439 66.4832 19.9134 66.549 19.8874L65.8131 18.0277C65.5293 18.14 65.2729 18.2982 65.0491 18.5033L66.4003 19.9778ZM66.5544 19.8852C66.588 19.8717 66.6445 19.8569 66.7411 19.8569V17.8569C66.4347 17.8569 66.1179 17.905 65.8077 18.0298L66.5544 19.8852ZM66.7411 19.8569C66.8323 19.8569 66.8974 19.8731 66.9315 19.8867L67.6709 18.0284C67.3731 17.9099 67.053 17.8569 66.7411 17.8569V19.8569ZM66.9105 19.878C66.9832 19.9089 67.0002 19.9293 66.9948 19.9237L68.4314 18.5322C68.2067 18.3002 67.9451 18.1445 67.6919 18.037L66.9105 19.878ZM67.0041 19.9332C67.0105 19.9396 67.0209 19.9506 67.0346 19.9863L68.9013 19.2683C68.7964 18.9958 68.6409 18.7427 68.422 18.5227L67.0041 19.9332ZM67.0346 19.9863C67.0494 20.0247 67.0568 20.0633 67.0568 20.1084H69.0568C69.0568 19.8202 69.005 19.538 68.9013 19.2683L67.0346 19.9863ZM67.0568 20.1084C67.0568 20.1609 67.0498 20.1756 67.0476 20.1811L68.9001 20.935C69.0105 20.6637 69.0568 20.3892 69.0568 20.1084H67.0568ZM67.0408 20.1983C67.0248 20.2398 66.9987 20.289 66.9542 20.3484L68.5549 21.5475C68.6942 21.3616 68.8163 21.1529 68.9069 20.9177L67.0408 20.1983ZM66.9618 20.3384C66.9116 20.4037 66.8503 20.4694 66.7788 20.532L68.0962 22.0368C68.2618 21.8918 68.4138 21.7311 68.5474 21.5574L66.9618 20.3384ZM66.7788 20.532C66.6874 20.612 66.593 20.6857 66.4986 20.7509L67.6355 22.3964C67.796 22.2855 67.9505 22.1643 68.0962 22.0368L66.7788 20.532ZM66.2757 22.185C66.4463 22.4059 66.6297 22.6182 66.8282 22.8254L68.272 21.4413C68.1209 21.2837 67.9842 21.1251 67.8585 20.9623L66.2757 22.185ZM68.401 22.6587C68.4731 22.5419 68.5424 22.4174 68.6029 22.2892L66.7937 21.4367C66.7711 21.4845 66.7397 21.5424 66.6992 21.608L68.401 22.6587ZM68.6063 22.2817C68.6309 22.2285 68.6277 22.2613 68.5637 22.3121C68.5296 22.3392 68.483 22.3673 68.4249 22.3878C68.3666 22.4083 68.3101 22.4164 68.2613 22.4164V20.4164C67.4863 20.4164 67.0173 20.9516 66.7902 21.4442L68.6063 22.2817ZM68.2613 22.4164C68.223 22.4164 68.1567 22.4088 68.0801 22.3741C68.0023 22.3388 67.9454 22.29 67.9097 22.2477L69.4367 20.9562C69.1346 20.599 68.7141 20.4164 68.2613 20.4164V22.4164ZM67.9097 22.2477C67.8929 22.2279 67.8713 22.1957 67.8546 22.1511C67.8376 22.1061 67.8302 22.0606 67.8302 22.0202H69.8302C69.8302 21.6176 69.6852 21.25 69.4367 20.9562L67.9097 22.2477ZM67.8302 22.0202C67.8302 21.9848 67.8337 21.9595 67.836 21.9457C67.8373 21.9384 67.8385 21.9331 67.8393 21.9298C67.8401 21.9265 67.8406 21.9249 67.8406 21.9248L69.7487 22.5242C69.7945 22.3784 69.8302 22.2061 69.8302 22.0202H67.8302ZM67.8611 21.8661C67.847 21.9028 67.816 21.9737 67.7601 22.0774L69.521 23.0257C69.6074 22.8653 69.6771 22.7161 69.7282 22.583L67.8611 21.8661ZM67.752 22.093C67.7043 22.1852 67.6423 22.2901 67.5632 22.402L69.1964 23.5564C69.3307 23.3664 69.4406 23.182 69.5292 23.0102L67.752 22.093ZM67.6521 23.665C67.6792 23.6938 67.7052 23.7203 67.7233 23.7388C67.7438 23.7597 67.755 23.7711 67.7647 23.7814L69.2202 22.4097C69.1943 22.3822 69.1684 22.3559 69.1511 22.3383C69.1315 22.3183 69.119 22.3055 69.1076 22.2934L67.6521 23.665ZM67.7927 23.8099C67.8148 23.8316 67.8372 23.8552 67.8714 23.8914L69.3269 22.5198C69.2958 22.4868 69.2471 22.435 69.1922 22.3811L67.7927 23.8099ZM67.8382 23.8544C67.8273 23.8416 67.7944 23.7982 67.7725 23.7285L69.6806 23.1291C69.6053 22.8897 69.4836 22.7016 69.3601 22.5568L67.8382 23.8544ZM67.7864 23.7696C67.7753 23.739 67.768 23.702 67.768 23.6584H69.768C69.768 23.4764 69.737 23.2822 69.6667 23.0881L67.7864 23.7696ZM67.768 23.6584C67.768 23.6267 67.7738 23.5707 67.8026 23.504L69.6386 24.297C69.7326 24.0794 69.768 23.8599 69.768 23.6584H67.768ZM67.7898 23.535C67.8042 23.4982 67.8196 23.4791 67.8188 23.4801L69.3854 24.7234C69.4794 24.605 69.5777 24.4537 69.6514 24.266L67.7898 23.535ZM67.8355 23.4596C67.8621 23.4278 67.8995 23.3943 67.9503 23.366L68.9219 25.1142C69.0972 25.0167 69.2472 24.8889 69.3686 24.7439L67.8355 23.4596ZM67.9674 23.3567C68.0002 23.3394 68.0998 23.2936 68.2465 23.2936V25.2936C68.5176 25.2936 68.7417 25.21 68.9048 25.1235L67.9674 23.3567ZM68.2465 23.2936C68.27 23.2936 68.3169 23.2979 68.3748 23.3218C68.4343 23.3463 68.4833 23.3823 68.5179 23.4191L67.0624 24.7907C67.3861 25.1343 67.8119 25.2936 68.2465 25.2936V23.2936ZM68.4763 23.3774C68.4156 23.3202 68.3692 23.2715 68.3322 23.2259L66.7799 24.487C66.891 24.6238 67.0046 24.7386 67.104 24.8324L68.4763 23.3774ZM66.9467 23.0635C66.845 23.1417 66.7397 23.2023 66.6221 23.2514L67.3935 25.0967C67.6671 24.9823 67.9233 24.8354 68.1653 24.6494L66.9467 23.0635ZM66.6221 23.2514C66.5578 23.2783 66.4885 23.2936 66.3944 23.2936V25.2936C66.7329 25.2936 67.0666 25.2333 67.3935 25.0967L66.6221 23.2514ZM66.3944 23.2936C66.2256 23.2936 66.1065 23.268 66.0243 23.2373L65.3243 25.1108C65.6629 25.2373 66.0239 25.2936 66.3944 25.2936V23.2936ZM66.041 23.2437C65.9422 23.2048 65.8919 23.166 65.8628 23.1365L64.4368 24.5388C64.6922 24.7985 64.9916 24.9798 65.3077 25.1044L66.041 23.2437ZM65.8702 23.144C65.8279 23.1001 65.7957 23.0499 65.7722 22.9855L63.8933 23.6709C64.0121 23.9964 64.1932 24.2858 64.4295 24.5312L65.8702 23.144ZM65.7722 22.9855C65.7457 22.9129 65.7261 22.8166 65.7261 22.6868H63.7261C63.7261 23.0223 63.7776 23.3537 63.8933 23.6709L65.7722 22.9855ZM64.7261 23.6868H64.7409V21.6868H64.7261V23.6868ZM66.3707 24.1018C66.7174 24.1018 67.019 23.9799 67.2466 23.8486L66.2475 22.1161C66.2298 22.1262 66.2296 22.1241 66.2466 22.1187C66.2636 22.1133 66.3066 22.1018 66.3707 22.1018V24.1018ZM67.4935 22.3169C67.3955 22.2069 67.3011 22.0981 67.2115 21.9891L65.6662 23.2587C65.7781 23.3949 65.8912 23.5251 66.0006 23.6478L67.4935 22.3169ZM67.2115 21.9891C67.1211 21.879 67.0314 21.7642 66.9481 21.6509L65.337 22.8359C65.4433 22.9805 65.5551 23.1235 65.6662 23.2587L67.2115 21.9891ZM65.4697 21.5036C65.206 21.7435 64.8936 22.1394 64.8936 22.6899H66.8936C66.8936 22.8115 66.8577 22.9039 66.8289 22.9554C66.8036 23.0007 66.7877 23.0084 66.8154 22.9832L65.4697 21.5036ZM64.8936 22.6899C64.8936 23.0541 65.0213 23.4606 65.3771 23.76L66.6649 22.2298C66.7416 22.2943 66.8068 22.3807 66.8483 22.4804C66.8876 22.5749 66.8936 22.652 66.8936 22.6899H64.8936ZM65.3771 23.76C65.6865 24.0204 66.0503 24.105 66.3707 24.105V22.105C66.3806 22.105 66.4191 22.1062 66.4753 22.124C66.5342 22.1427 66.6015 22.1764 66.6649 22.2298L65.3771 23.76ZM67.3707 23.105V23.1018H65.3707V23.105H67.3707ZM65.4626 20.2562C65.4626 20.5366 65.5197 20.8059 65.6116 21.0522L67.4854 20.3531C67.4647 20.2975 67.4626 20.265 67.4626 20.2562H65.4626ZM67.0821 21.5484C67.2574 21.4378 67.4168 21.3084 67.552 21.1584L66.0665 19.8193C66.0713 19.8139 66.0589 19.8292 66.0149 19.8569L67.0821 21.5484ZM67.552 21.1584C67.7763 20.9096 67.9041 20.5947 67.9041 20.2499H65.9041C65.9041 20.1785 65.9167 20.0955 65.9501 20.0104C65.9831 19.926 66.0276 19.8625 66.0665 19.8193L67.552 21.1584ZM67.9041 20.2499C67.9041 20.0185 67.8514 19.7382 67.6674 19.4777L66.0341 20.6321C65.9212 20.4723 65.9041 20.3177 65.9041 20.2499H67.9041ZM67.6674 19.4777C67.427 19.1377 67.0583 18.9795 66.6967 18.9795V20.9795C66.6064 20.9795 66.4799 20.9622 66.3444 20.8956C66.2056 20.8273 66.1029 20.7294 66.0341 20.6321L67.6674 19.4777ZM66.6967 18.9795C66.2975 18.9795 65.8905 19.1695 65.6551 19.573L67.3826 20.5808C67.3209 20.6866 67.219 20.8009 67.07 20.8819C66.925 20.9608 66.7885 20.9795 66.6967 20.9795V18.9795ZM65.6551 19.573C65.5516 19.7504 65.4626 19.983 65.4626 20.2593H67.4626C67.4626 20.4224 67.4091 20.5355 67.3826 20.5808L65.6551 19.573ZM67.4626 20.2593V20.2562H65.4626V20.2593H67.4626Z" fill="#00524E" mask="url(#path-11-inside-1_243_2294)"/>
<path d="M39.8897 12.8101H39.8867V7.48987C39.8867 5.08716 41.723 3.1821 43.9206 3.1821C46.1177 3.1821 47.9515 5.08672 47.9515 7.48987V13.3101C47.9515 13.8743 47.5248 14.2849 47.0617 14.2849C46.6005 14.2849 46.1778 13.8796 46.1778 13.3101V10.9833V10.4833H45.6778H42.1633H41.6633V10.9833V13.3101C41.6633 13.8743 41.2367 14.2849 40.7735 14.2849C40.3124 14.2849 39.8897 13.8796 39.8897 13.3101V12.8101ZM41.6604 7.65342V8.50551V9.00551H42.1604H45.6748H46.1748V8.50551V7.15342C46.1748 5.87742 45.1903 4.7888 43.9176 4.7888C42.646 4.7888 41.6574 5.87629 41.6574 7.15342V7.65342H41.6604Z" fill="#00524E" stroke="#00524E"/>
<path d="M100.729 10.9833V10.4833H100.229H96.7119H96.2119V10.9833V13.3133C96.2119 13.8767 95.7859 14.2848 95.3251 14.2848C94.8642 14.2848 94.4382 13.8767 94.4382 13.3133V7.49298C94.4382 5.09027 96.2745 3.18521 98.4721 3.18521C100.669 3.18521 102.5 5.08939 102.5 7.49298V13.3133C102.5 13.8767 102.074 14.2848 101.613 14.2848C101.154 14.2848 100.729 13.8782 100.729 13.3133V10.9833ZM96.2089 8.50548V9.00548H96.7089H100.226H100.726V8.50548V7.15339C100.726 5.87739 99.7418 4.78877 98.4691 4.78877C97.1975 4.78877 96.2089 5.87626 96.2089 7.15339V8.50548Z" fill="#00524E" stroke="#00524E"/>
<path d="M57.0145 9.95196H57.0115V4.29525C57.0115 3.72964 57.4395 3.32053 57.8954 3.32053C58.356 3.32053 58.7881 3.73148 58.7881 4.29525V10.1155C58.7881 12.518 56.952 14.4201 54.7572 14.4201C52.5622 14.4201 50.7234 12.5146 50.7234 10.1155V4.29525C50.7234 3.73035 51.1507 3.32053 51.6102 3.32053C52.0717 3.32053 52.5 3.72935 52.5 4.29525V10.452C52.5 11.7268 53.4835 12.8197 54.7572 12.8197C56.0304 12.8197 57.0145 11.7305 57.0145 10.452V9.95196Z" fill="#00524E" stroke="#00524E"/>
<path d="M64.4799 9.05199L64.0501 9.30739L64.4799 9.05194L64.3253 8.79175H65.3628C66.4761 8.79175 67.3267 7.84081 67.3267 6.73843C67.3267 5.63469 66.4748 4.68824 65.3628 4.68824H64.0442H63.5442V5.18824V8.29175V8.79175H63.5501V9.30739V13.2725C63.5501 13.8391 63.1241 14.2472 62.6603 14.2472C62.1965 14.2472 61.7705 13.8391 61.7705 13.2725V4.40529C61.7705 3.84377 62.1917 3.44315 62.6366 3.44315H65.8666C67.4602 3.44315 68.807 4.82688 68.807 6.58749C68.807 7.76873 68.3568 8.80954 67.6052 9.46925C67.6052 9.46926 67.6052 9.46928 67.6052 9.46929L67.4511 9.60446L67.1439 9.87401L67.347 10.2287L68.7862 12.7427L68.7914 12.7539L68.8044 12.7755C68.9382 12.9979 68.985 13.2639 68.9323 13.5262L69.4111 13.6223L68.9323 13.5262C68.8803 13.7854 68.7364 14.0011 68.5362 14.1392C68.3365 14.2739 68.1105 14.3161 67.8882 14.2658C67.668 14.216 67.469 14.0755 67.3337 13.8567L67.3265 13.8444L67.3021 13.803L67.2112 13.6496L66.8878 13.1047L65.9068 11.4531L64.9258 9.80224L64.6025 9.25827L64.512 9.10587L64.4881 9.06571L64.482 9.05542L64.4804 9.05281L64.48 9.05216L64.4799 9.05199Z" fill="#00524E" stroke="#00524E"/>
<path d="M90.0347 9.60446L89.7275 9.87402L89.9306 10.2287L91.3796 12.7599L91.3794 12.76L91.3868 12.772C91.5214 12.9926 91.5682 13.2562 91.5136 13.5202L91.513 13.523C91.4608 13.7829 91.3164 13.999 91.1155 14.137C90.9171 14.2733 90.6905 14.3154 90.4699 14.2636L90.4659 14.2626C90.2448 14.2126 90.0449 14.0711 89.9096 13.8507L87.0577 9.04892L86.9049 8.79175H87.9464C89.0561 8.79175 89.9103 7.84149 89.9103 6.73843C89.9103 5.63401 89.0549 4.68824 87.9464 4.68824H86.6278H86.1278V5.18824V7.48328V8.29175V8.79175V9.30425V13.2693C86.1278 13.8366 85.7011 14.244 85.2409 14.244C84.7808 14.244 84.3541 13.8366 84.3541 13.2693V4.40529C84.3541 3.84304 84.773 3.44315 85.2202 3.44315H88.4502C90.0439 3.44315 91.3906 4.82688 91.3906 6.58749C91.3906 7.76773 90.9381 8.80912 90.1885 9.46948C90.1884 9.4696 90.1883 9.46973 90.1881 9.46985L90.0347 9.60446Z" fill="#00524E" stroke="#00524E"/>
<path d="M71.0192 8.76028C71.0192 5.64059 73.4067 3.15073 76.2798 3.15073C79.153 3.15073 81.5405 5.64059 81.5405 8.76028C81.5405 11.8805 79.1554 14.373 76.2798 14.373C73.404 14.373 71.0192 11.8834 71.0192 8.76028ZM72.7395 8.76028C72.7395 10.7878 74.2989 12.4864 76.2798 12.4864C78.2607 12.4864 79.8202 10.7878 79.8202 8.76028C79.8202 6.73276 78.2607 5.03413 76.2798 5.03413C74.2986 5.03413 72.7395 6.73623 72.7395 8.76028Z" fill="#00524E" stroke="#00524E"/>
<path d="M18.239 2.50896L18.244 2.52079L18.2678 2.5768L18.3613 2.79767L18.7 3.59818L19.7345 6.04485L20.7719 8.49863L21.1141 9.30811L21.21 9.53498L21.2353 9.59476L21.2418 9.61009L21.2434 9.61397L21.2438 9.61495L21.2439 9.61519L21.7045 9.42059L21.244 9.61527L21.2444 9.61632C21.5729 10.3885 21.2355 11.2764 20.545 11.6038L20.5438 11.6044C19.8704 11.9259 19.0544 11.6198 18.7338 10.8585L18.7337 10.8581L18.2731 11.0525L18.2731 11.0525L18.7336 10.858L18.7336 10.8579L18.7334 10.8574L18.7325 10.8553L18.729 10.847L18.7153 10.8146L18.6626 10.6897L18.4684 10.2297L17.825 8.70572C17.3209 7.51164 16.7171 6.08167 16.3185 5.13829L15.8579 4.0482L15.3973 5.13829L13.8909 8.70404L13.2475 10.2269L13.0533 10.6866L13.0006 10.8113L12.9869 10.8438L12.9834 10.852L12.9825 10.8541L12.9823 10.8546L12.9823 10.8548L13.4428 11.0494L12.9822 10.8548L12.982 10.8553C12.6616 11.6162 11.8457 11.9231 11.1718 11.6043C10.4829 11.2737 10.1455 10.3876 10.472 9.61189L10.4721 9.61164L10.4721 9.61151L10.4725 9.61066L10.4741 9.60679L10.4806 9.59146L10.5058 9.53168L10.6017 9.30481L10.9436 8.49535L11.9802 6.04162C12.3569 5.1502 12.7332 4.26004 13.0146 3.59512C13.1553 3.26263 13.2722 2.9866 13.3535 2.79494L13.4471 2.57475L13.4705 2.52019L13.4734 2.51355C13.4741 2.51193 13.4744 2.51121 13.4744 2.51113L13.4737 2.51287L13.4701 2.52046L13.4644 2.53206C13.461 2.53858 13.4487 2.56054 13.4393 2.57566C13.4029 2.62215 13.1455 2.68093 12.8939 2.59808C12.9296 2.51399 12.9584 2.44618 12.9794 2.39702L13.483 2.49444C13.8909 1.47966 14.6859 0.5 15.8579 0.5C17.0376 0.5 17.8797 1.49548 18.2253 2.47444L18.2254 2.47438C18.2282 2.48223 18.2306 2.4887 18.2314 2.49073L18.7002 2.31597C18.7106 2.34023 18.7435 2.41798 18.7949 2.53936C18.5319 2.63753 18.2581 2.54724 18.2468 2.52589L18.2404 2.51213L18.239 2.50896ZM18.239 2.50896L18.2387 2.50844C18.2381 2.50696 18.2383 2.50756 18.239 2.50896ZM18.273 11.0525C18.273 11.0525 16.9728 7.97238 16.1293 5.9753L16.3185 5.52749L15.8579 5.33289L15.3973 5.52749C15.4562 5.6669 15.5196 5.81694 15.5865 5.97529L18.273 11.0525ZM18.273 11.0525C18.6968 12.0587 19.811 12.5084 20.7592 12.0556L18.273 11.0525Z" fill="#00524E" stroke="#00524E"/>
<path d="M1.11744 15.8421L1.11744 15.8421C0.799794 16.0855 0.584478 16.454 0.519534 16.8872C0.454851 17.3186 0.552192 17.7438 0.789777 18.0895L0.790235 18.0902C4.41494 23.3833 9.9083 26.3971 15.858 26.3971C21.8076 26.3971 27.301 23.3833 30.9257 18.0902L30.9262 18.0895C31.1637 17.7438 31.2611 17.3186 31.1964 16.8872C31.1317 16.4556 30.9172 16.0889 30.5971 15.841C29.9518 15.3431 29.0392 15.4854 28.5562 16.1901C25.5115 20.6336 20.8859 23.2056 15.858 23.2056C10.8301 23.2056 6.20442 20.6336 3.1597 16.1901L1.11744 15.8421ZM1.11744 15.8421L1.11877 15.8411M1.11744 15.8421L1.11877 15.8411M1.11877 15.8411C1.76408 15.3431 2.67664 15.4854 3.15967 16.1901L1.11877 15.8411Z" fill="#00524E" stroke="#00524E"/>
</svg>
