<svg width="28" height="24" viewBox="0 0 28 24" fill="none" xmlns="http://www.w3.org/2000/svg">
<g id="Group 17">
<g id="Group">
<path id="Vector" d="M2.4438 20.6295C1.70858 20.6295 1.11074 20.0316 1.11074 19.2956V6.80599H23.9933V9.24646C24.3805 9.41299 24.7494 9.61449 25.1041 9.83597V4.20067C25.1041 2.85346 24.0083 1.75687 22.6603 1.75687H22.0924V0.555371C22.0924 0.248959 21.8443 0 21.5371 0H19.8859C19.5795 0 19.3306 0.248127 19.3306 0.555371V1.75687H18.0466V0.555371C18.0466 0.248959 17.7985 0 17.4913 0H15.8401C15.5337 0 15.2848 0.248127 15.2848 0.555371V1.75687H14.0017V0.555371C14.0017 0.248959 13.7535 0 13.4463 0H11.7952C11.4888 0 11.2398 0.248127 11.2398 0.555371V1.75687H9.95671V0.555371C9.95671 0.248959 9.70858 0 9.40133 0H7.75021C7.4438 0 7.19484 0.248127 7.19484 0.555371V1.75687H5.91091V0.555371C5.91091 0.248959 5.66278 0 5.35554 0H3.70441C3.398 0 3.14904 0.248127 3.14904 0.555371V1.75687H2.44296C1.09575 1.75687 0 2.85262 0 4.20067V19.2956C0 20.6428 1.09575 21.7394 2.4438 21.7394H13.9525C13.7003 21.388 13.4754 21.0175 13.2798 20.6286H2.4438V20.6295ZM20.4405 1.11074H20.9809V2.86178H20.4405V1.11074ZM16.3955 1.11074H16.9367V2.86178H16.3955V1.11074ZM12.3505 1.11074H12.8918V2.86178H12.3505V1.11074ZM8.30558 1.11074H8.8468V2.86178H8.30558V1.11074ZM4.25978 1.11074H4.80017V2.86178H4.25978V1.11074ZM1.11074 4.20067C1.11074 3.46545 1.70858 2.86761 2.4438 2.86761H3.14988V3.41798C3.14988 3.7244 3.398 3.97336 3.70525 3.97336H5.35637C5.66278 3.97336 5.91174 3.72523 5.91174 3.41798V2.86761H7.19567V3.41798C7.19567 3.7244 7.4438 3.97336 7.75104 3.97336H9.40217C9.70858 3.97336 9.95754 3.72523 9.95754 3.41798V2.86761H11.2406V3.41798C11.2406 3.7244 11.4888 3.97336 11.796 3.97336H13.4471C13.7535 3.97336 14.0025 3.72523 14.0025 3.41798V2.86761H15.2856V3.41798C15.2856 3.7244 15.5337 3.97336 15.841 3.97336H17.4921C17.7985 3.97336 18.0475 3.72523 18.0475 3.41798V2.86761H19.3314V3.41798C19.3314 3.7244 19.5795 3.97336 19.8868 3.97336H21.5379C21.8443 3.97336 22.0933 3.72523 22.0933 3.41798V2.86761H22.6611C23.3963 2.86761 23.9942 3.46545 23.9942 4.20067V5.69609H1.11074V4.20067Z" fill="white"/>
<path id="Vector_2" d="M20.7109 24C16.7933 24 13.606 20.8127 13.606 16.896C13.606 12.9792 16.7933 9.79187 20.7109 9.79187C24.6284 9.79187 27.8158 12.9792 27.8158 16.896C27.8158 20.8127 24.6284 24 20.7109 24ZM20.7109 10.9018C17.4061 10.9018 14.7167 13.5904 14.7167 16.896C14.7167 20.2015 17.4061 22.8901 20.7109 22.8901C24.0156 22.8901 26.705 20.2015 26.705 16.896C26.705 13.5904 24.0156 10.9018 20.7109 10.9018Z" fill="white"/>
</g>
<g id="Group_2">
<path id="Vector_3" d="M19.9585 14.1124C19.9618 14.1033 19.1608 15.8893 19.1608 15.8893C19.0484 16.1407 19.1608 16.4355 19.4114 16.5479C19.6629 16.6603 19.9576 16.5479 20.07 16.2964C20.07 16.2964 20.4989 15.3397 20.7103 14.8685C20.9218 15.3397 21.3506 16.2973 21.3506 16.2973C21.4631 16.5487 21.7578 16.6611 22.0093 16.5479C22.2607 16.4355 22.3723 16.1407 22.2599 15.8893C22.2599 15.8893 21.4589 14.1024 21.4622 14.1124C21.3623 13.8468 21.105 13.5354 20.7095 13.5354C20.314 13.5354 20.0709 13.8443 19.9568 14.1124H19.9585Z" fill="white"/>
<path id="Vector_4" d="M24.9076 17.7369C24.8859 17.5987 24.8118 17.478 24.6986 17.3955C24.4655 17.2257 24.1366 17.2781 23.9675 17.5113C23.1832 18.5912 21.9959 19.2099 20.7111 19.2099C19.4263 19.2099 18.239 18.5904 17.4546 17.5113C17.2848 17.2781 16.9567 17.2265 16.7236 17.3955C16.6103 17.4771 16.5362 17.5987 16.5146 17.7369C16.4929 17.8751 16.5254 18.0134 16.6078 18.1266C17.5912 19.4805 19.0874 20.2565 20.7111 20.2565C22.3347 20.2565 23.831 19.4805 24.8143 18.1266C24.8968 18.0134 24.9301 17.8751 24.9076 17.7369Z" fill="white"/>
</g>
<g id="Group_3">
<path id="Vector_5" d="M6.20912 7.97003H3.70537C3.52136 7.97003 3.37231 8.11907 3.37231 8.30309V10.8077C3.37231 10.9917 3.52136 11.1407 3.70537 11.1407H6.20912C6.39313 11.1407 6.54217 10.9917 6.54217 10.8077V8.30309C6.54217 8.11907 6.39313 7.97003 6.20912 7.97003ZM5.87606 10.4738H4.03843V8.63614H5.87606V10.4738Z" fill="white"/>
<path id="Vector_6" d="M6.20912 12.0241H3.70537C3.52136 12.0241 3.37231 12.1732 3.37231 12.3572V14.8618C3.37231 15.0458 3.52136 15.1948 3.70537 15.1948H6.20912C6.39313 15.1948 6.54217 15.0458 6.54217 14.8618V12.3572C6.54217 12.1732 6.39313 12.0241 6.20912 12.0241ZM5.87606 14.5287H4.03843V12.6911H5.87606V14.5287Z" fill="white"/>
<path id="Vector_7" d="M6.20912 16.0791H3.70537C3.52136 16.0791 3.37231 16.2281 3.37231 16.4122V18.9159C3.37231 19.0999 3.52136 19.249 3.70537 19.249H6.20912C6.39313 19.249 6.54217 19.0999 6.54217 18.9159V16.4122C6.54217 16.2281 6.39313 16.0791 6.20912 16.0791ZM5.87606 18.5828H4.03843V16.7452H5.87606V18.5828Z" fill="white"/>
<path id="Vector_8" d="M10.254 7.97H7.75029C7.56628 7.97 7.41724 8.11904 7.41724 8.30306V10.8076C7.41724 10.9917 7.56628 11.1407 7.75029 11.1407H10.254C10.4381 11.1407 10.5871 10.9917 10.5871 10.8076V8.30306C10.5871 8.11904 10.4381 7.97 10.254 7.97ZM9.92098 10.4737H8.08335V8.63611H9.92098V10.4737Z" fill="white"/>
<path id="Vector_9" d="M10.254 12.0241H7.75029C7.56628 12.0241 7.41724 12.1732 7.41724 12.3572V14.8618C7.41724 15.0458 7.56628 15.1948 7.75029 15.1948H10.254C10.4381 15.1948 10.5871 15.0458 10.5871 14.8618V12.3572C10.5871 12.1732 10.4381 12.0241 10.254 12.0241ZM9.92098 14.5287H8.08335V12.6911H9.92098V14.5287Z" fill="white"/>
<path id="Vector_10" d="M11.7955 11.1398H14.3C14.4841 11.1398 14.6331 10.9908 14.6331 10.8068V8.3022C14.6331 8.11819 14.4841 7.96915 14.3 7.96915H11.7955C11.6114 7.96915 11.4624 8.11819 11.4624 8.3022V10.8068C11.4624 10.9908 11.6114 11.1398 11.7955 11.1398ZM12.1285 8.63609H13.967V10.4737H12.1285V8.63609Z" fill="white"/>
<path id="Vector_11" d="M16.1734 8.63611H18.0119V9.02829C18.2301 8.95335 18.4524 8.88924 18.678 8.83178V8.30306C18.678 8.11904 18.529 7.97 18.345 7.97H15.8404C15.6564 7.97 15.5073 8.11904 15.5073 8.30306V10.4071C15.7213 10.2356 15.9436 10.0749 16.1734 9.92421V8.63528V8.63611Z" fill="white"/>
<path id="Vector_12" d="M21.7088 8.63611H22.056V8.6894C22.2816 8.72604 22.5031 8.77183 22.7221 8.82679V8.30306C22.7221 8.11904 22.5731 7.97 22.3891 7.97H19.8853C19.7013 7.97 19.5522 8.11904 19.5522 8.30306V8.66109C19.9319 8.6078 20.3166 8.57117 20.7104 8.57117C21.0485 8.57117 21.3807 8.59781 21.7088 8.63695V8.63611Z" fill="white"/>
<path id="Vector_13" d="M12.1285 14.5287V12.691H13.5373C13.6722 12.4612 13.8179 12.2398 13.9736 12.0249H11.7955C11.6114 12.0249 11.4624 12.174 11.4624 12.358V14.8626C11.4624 15.0466 11.6114 15.1956 11.7955 15.1956H12.5615C12.6089 14.97 12.6681 14.7485 12.733 14.5295H12.1285V14.5287Z" fill="white"/>
<path id="Vector_14" d="M12.1285 18.5287V16.6911H12.3958C12.4016 16.4671 12.4091 16.244 12.4316 16.025H11.7955C11.6114 16.025 11.4624 16.174 11.4624 16.358V18.8626C11.4624 19.0466 11.6114 19.1957 11.7955 19.1957H12.7155C12.6522 18.9767 12.5931 18.7552 12.5482 18.5296H12.1285V18.5287Z" fill="white"/>
<path id="Vector_15" d="M10.254 16.0791H7.75029C7.56628 16.0791 7.41724 16.2281 7.41724 16.4122V18.9159C7.41724 19.0999 7.56628 19.249 7.75029 19.249H10.254C10.4381 19.249 10.5871 19.0999 10.5871 18.9159V16.4122C10.5871 16.2281 10.4381 16.0791 10.254 16.0791ZM9.92098 18.5828H8.08335V16.7452H9.92098V18.5828Z" fill="white"/>
</g>
</g>
</svg>
